<svg xmlns="http://www.w3.org/2000/svg" viewBox="0 0 220 40" role="img" aria-label="JetPakistan">
  <defs>
    <linearGradient id="jp-mark" x1="0%" y1="0%" x2="100%" y2="100%">
      <stop offset="0%" stop-color="#00A651"/>
      <stop offset="100%" stop-color="#00843D"/>
    </linearGradient>
  </defs>
  <rect x="0" y="4" width="32" height="32" rx="10" fill="url(#jp-mark)"/>
  <path fill="#04140c" transform="translate(4,8) scale(0.85)" d="M17.8 19.2 16 11l3.5-3.5C21 6 21.5 4 21 3.5c-.5-.5-2.5 0-4 1.5L13.5 8.5 5.3 6.7c-.5-.1-.9.1-1.1.5l-.3.5c-.2.5-.1 1 .3 1.3L9 12l-2 3H4l-1 1 3 2 2 3 1-1v-3l3-2 3.5 3.8c.3.4.8.5 1.3.3l.5-.2c.4-.3.6-.7.5-1.2z"/>
  <text x="42" y="27" font-family="Space Grotesk, Inter, Arial, sans-serif" font-weight="700" font-size="22" letter-spacing="-0.02em" fill="#E8F5EC">Jet<tspan fill="#FDB913">Pakistan</tspan></text>
</svg>
